# xmcd
#
# Track frame offsets:
#	150
#	24478
#	44871
#	58444
#	73798
#	94732
#	117305
#	134124
#	157317
#
# Disc length: 2340 seconds
#
# Revision: 2
# Processed by: cddbd v1.5.2PL0 Copyright (c) Steve Scherf et al.
# Submitted via: dBpowerAMP V4.0
#
DISCID=94092209
DTITLE=Lou Rawls - All Things In Time
DYEAR=1976
DGENRE=Pop
TTITLE0=You're the One
TTITLE1=You'll Never Find Another Love Like Mine
TTITLE2=Time
TTITLE3=Groovy People
TTITLE4=Need You Forever
TTITLE5=From Now On
TTITLE6=Pure Imagination
TTITLE7=This Song Will Last Forever
TTITLE8=Let's Fall In Love All Over Again
EXTD=
EXTT0=
EXTT1=
EXTT2=
EXTT3=
EXTT4=
EXTT5=
EXTT6=
EXTT7=
EXTT8=
PLAYORDER=
